<svg preserveAspectRatio="xMidYMid meet" data-bbox="100.47 99.485 181.117 170.264" height="500" viewBox="100.47 99.485 181.117 170.264" width="500" xmlns="http://www.w3.org/2000/svg" data-type="color" role="presentation" aria-hidden="true" aria-label=""><defs><style>#comp-lrfhh92q svg [data-color="1"] {fill: #E6C2BF;}</style></defs>
    <g>
        <defs>
            <clipPath id="6c80ab8b-40c2-43bf-ada2-18863ec88fc6_comp-lrfhh92q">
                <path d="M100 99h182v171H100Zm0 0"></path>
            </clipPath>
            <clipPath id="2b6fc4c8-7a3a-4665-abc8-5b81a2fc7eb7_comp-lrfhh92q">
                <path d="m250.664 73.45 49.102 68.152-188.032 135.472-49.101-68.152Zm0 0"></path>
            </clipPath>
            <clipPath id="65e16915-44d8-438f-aa5c-7e7045587e85_comp-lrfhh92q">
                <path d="m250.664 73.45 49.102 68.152-192.29 138.543-49.105-68.153Zm0 0"></path>
            </clipPath>
        </defs>
        <g clip-path="url(#6c80ab8b-40c2-43bf-ada2-18863ec88fc6_comp-lrfhh92q)">
            <g clip-path="url(#2b6fc4c8-7a3a-4665-abc8-5b81a2fc7eb7_comp-lrfhh92q)">
                <g clip-path="url(#65e16915-44d8-438f-aa5c-7e7045587e85_comp-lrfhh92q)">
                    <path d="M261.383 168.527c1.36-.25 2.617-1.047 2.77-1.742.097-.5-.34-1.219-1.145-1.86-.727-.59-.809-1.183-.274-2.105.465-.793.739-2.625.57-3.77-.116-.722-.831-1.952-1.488-2.515l-.488-.433.758-.875c.984-1.133 1.543-2.43 1.43-3.286-.246-1.566-1.25-2.546-2.985-2.914l-1.11-.234-.124-1.297c-.176-2-.945-2.828-2.879-3.039-1.57-.187-2.422.098-4.16 1.383-.742.558-1.528 1.222-1.738 1.45l-.36.433-4.39-1.942c-6.82-3.004-8.57-3.617-11.918-4.219-5.258-.94-11.122-.101-16.594 2.415l-1.367.625 1.617-1.22c1.808-1.378 5.324-3.628 8.008-5.112 2.523-1.418 5.488-2.918 5.851-2.973.16-.02.434-.14.63-.281.48-.344 3.773-1.63 10.171-3.97 8.77-3.21 12.043-4.554 13.328-5.48l.402-.289 1.243 1.754c1.07 1.551 1.332 1.82 2.101 2.36 3.746 2.566 9.883 4.668 13.664 4.648 3.707-.02 7.758-1.695 8.496-3.516.524-1.238-.086-2.617-1.5-3.445-.914-.527-1.023-.832-.48-1.375.824-.824 1.098-2.34.558-3.371-.53-1.09-.878-2.45-1.117-4.582-.316-2.781-.61-3.555-2.097-5.578-1.133-1.54-1.149-1.594-1.391-2.836-.27-1.434-.617-2.184-1.313-2.773-.656-.563-1.421-.852-2.519-.97-.856-.066-.922-.116-1.203-.624-.176-.352-.543-.754-1.113-1.172-.575-.414-1.106-.969-1.586-1.637-1.391-1.933-2.825-2.8-4.348-2.66-.805.078-.95.148-2.25 1.086-1.223.906-1.492 1.152-2.273 2.293-1.207 1.7-1.993 3.355-2.72 5.676-1.081 3.445-1.554 7.425-1.288 10.847.144 1.715.62 4.586.824 4.868.07.101.082.222.004.28-.063.048-.067.18.004.278.172.238-.13.457-1.715 1.238-1.676.805-3.524 1.524-10.977 4.168a737.531 737.531 0 0 0-7.62 2.73l-1.36.5.844-.609c2.59-1.917 7.316-7.437 9.172-10.687 2.039-3.637 2.425-7.383 1.19-11.688-.401-1.433-2.53-6.78-3.108-7.824-.5-.906-.97-1.375-1.22-1.195-.085.062-.413.898-.714 1.855-.309.954-1.168 3.09-1.926 4.746-1.543 3.372-2.265 5.711-2.387 7.645-.046.711.012 2.488.118 3.961.504 6.879.394 9.18-.524 10.902-.543 1-1.765 2.364-2.91 3.23-.484.372-1.836 1.126-3.07 1.731-2.203 1.055-4.266 2.16-6.934 3.68-2.14 1.234-13.941 9.605-19.976 14.191-8.122 6.18-9.957 7.735-17.43 14.786-5.172 4.87-8.238 7.703-16.234 14.859-5.922 5.324-7.504 6.824-10.07 9.578-3.208 3.445-8.813 10.352-12.044 14.875-.86 1.195-1.582 2.152-1.605 2.113-.063-.086 1.976-3.898 2.789-5.226.43-.672 1.207-2.004 1.734-2.918.531-.914 1.668-2.774 2.52-4.117a598.07 598.07 0 0 0 3.199-5.141c4.969-8.137 6.648-10.832 7.8-12.426 1.43-2.012 4.302-5.683 5.403-6.957.414-.473 1.309-1.617 2.02-2.523 1.472-1.922 4.191-4.887 8.863-9.649 3.687-3.77 7.773-8.074 13.11-13.87 4.265-4.614 5.495-6.056 6.734-7.817l.898-1.281 1.281.187c.7.098 1.864.227 2.586.262.727.054 1.903.172 2.637.254 3.648.433 7.02-.098 10.523-1.684 3.207-1.45 4.758-3.234 4.32-4.988-.245-1.012-.855-1.434-2.265-1.606l-1.187-.16-.239-.789c-.195-.59-.402-.953-.82-1.383-.316-.328-.66-.734-.766-.922-.777-1.261-2.117-2.867-2.761-3.277-.516-.336-.93-.789-1.61-1.73-1.054-1.465-2.715-2.954-4.078-3.66-1.015-.536-2.777-.88-3.75-.743-.422.051-1.09-.047-1.547-.207-1.023-.375-2.297-.418-3.133-.097-.363.128-.687.21-.722.16-.04-.051-.356-.172-.688-.258-.789-.184-1.894-.02-2.48.39-.969.653-1.91 3.102-1.953 5.051-.04 1.598.761 5.723 1.3 6.7.125.234.497 1.035.836 1.792.461 1.067.97 1.934 2.235 3.739l1.652 2.351-.531.735c-1.274 1.82-3.379 4.254-7.774 9.011-7.156 7.73-8.882 9.543-12.664 13.422-1.898 1.969-4.437 4.594-5.586 5.867a240.376 240.376 0 0 1-2.097 2.243 17.26 17.26 0 0 0 .57-4.446c-.02-2.285.434-3.367 2.629-6.117.758-.95 1.543-2.144 1.867-2.816 2.89-5.93 3.348-11.824 1.426-18.031-.598-1.891-1.805-4.926-2.348-5.844-.398-.692-.492-.758-.82-.719-.352.047-.402.215-.644 1.984-.211 1.536-.512 2.59-1.497 5.297-1.59 4.328-2.011 5.88-2.476 9.125-.473 3.309-.438 4.633.156 8.645.941 6.183 1.113 9.21.695 11.715-.07.433-.129.836-.164 1.164-.343.402-.472.632-.718 1.226-.172.43-.446.93-.63 1.13-1.058 1.222-3.769 4.667-4.937 6.316-2.449 3.414-2.207 3.05-9.277 14.656a330.898 330.898 0 0 1-3.324 5.363c-.75 1.215-1.743 2.848-2.18 3.621a161.97 161.97 0 0 1-1.945 3.418c-1.215 2.067-2.106 3.918-3.485 7.137-.68 1.582-4.082 7.574-4.277 7.55-.04.008.371-1.3.898-2.87 2.875-8.727 4.254-15.793 4.27-22.02-.02-2.312-.805-6.836-1.93-10.957-.512-1.91-1.078-4.098-1.21-4.875l-.286-1.41.816-1.504c1.102-2.012 1.524-2.668 2.625-4.016 1.575-1.886 3.051-3.136 4.915-4.195 2.523-1.39 3.668-2.285 4.152-3.188.781-1.468 1.426-4.726 1.621-8.18.195-3.51.637-4.777 2.172-6.245.851-.82.89-.914.598-1.11-.317-.195-2.23 1.055-6.317 4.118-2.914 2.175-3.828 2.933-4.844 3.992-1.793 1.87-3.8 4.351-4.652 5.73-1.676 2.758-2.445 6.078-2.254 9.692a85.37 85.37 0 0 1 .121 3.437c.008.703.078 1.438.172 1.645.094.203.344 1.191.543 2.191.223 1.008.785 3.195 1.246 4.895 1.824 6.605 2.102 10.046 1.317 16.285-.282 2.273-.946 6.09-1.051 5.945-.117-.164-.274-2.352-.25-3.363.054-1.633-.102-4.606-.332-6.317-.285-2.152-1.336-6.52-1.969-8.168-.488-1.316-.688-1.652-2.48-4.156-1.786-2.476-2.106-2.86-3.672-4.355-2.985-2.836-5.02-4.149-8.395-5.395-3.73-1.379-9.308-2.203-11.664-1.719-.863.164-1.621.668-1.687 1.141-.102.629.386 1.031 2.039 1.664 4.05 1.55 5.336 2.73 7.277 6.664.637 1.309 1.262 2.309 2.36 3.863 2.253 3.13 3.074 3.782 8.05 6.543 1.399.774 3.11 1.786 3.781 2.262 1.227.86 1.239.875 3.051 3.387 1.606 2.234 1.871 2.676 2.3 3.804.669 1.801.731 2.18.72 4.16-.004.946.058 1.915.136 2.13.086.222-.03 1.015-.304 1.996-.246.886-.485 1.746-.516 1.922-.039.156-.488 1.636-1.012 3.257a210.996 210.996 0 0 0-1.41 4.563c-1.097 3.777-7.707 14.308-16.894 26.87-3.496 4.802-8.582 10.384-15.895 17.43-2.965 2.868-5.027 4.965-5.144 5.258-.22.516.336.18 2.101-1.32 4.91-4.148 12.32-11.558 16.57-16.574 1.774-2.106 8.09-10.715 11.106-15.188 2.594-3.82 5.246-8.175 8.094-13.246 5.34-9.543 8.86-14.816 14.672-22.082 3.37-4.203 3.824-4.726 5.73-6.547 2.77-2.648 4.356-3.617 5.953-3.68 1.29-.042 3.793.235 5.313.602 1.922.461 4.73 2.102 7.226 4.207.707.602 1.301 1.32 3.324 4.125 1.368 1.871 2.645 3.54 2.84 3.703.778.625 2.54 1.375 3.657 1.563.64.117 2.015.195 3.07.187 2.062-.011 3.316.141 3.832.477.176.105.39.148.492.074.266-.191-1.207-2.445-4.164-6.414-2.644-3.535-3.766-4.722-5.98-6.332-2.97-2.183-7.016-3.695-10.79-4.062-1.82-.16-4.695-.051-6.136.265a53.4 53.4 0 0 1-2.414.434l-1.258.195 1.043-.902c.555-.5 1.738-1.375 2.601-1.93.86-.566 3.739-2.5 6.38-4.316 6.402-4.36 8.937-5.88 15.273-9.137 3.668-1.89 9.629-4.758 11.504-5.527 2.66-1.09 7.554-.688 10.593.894 2.094 1.078 3.188 2.188 6.145 6.215 2.828 3.863 3.23 4.273 5.246 5.133 2.133.918 4.11.965 8.672.273 3.812-.597 5.594-.593 6.812.043 1.059.528 1.473-.308.434-.867-.574-.316-1.852-1.523-5.527-5.254-1.356-1.379-3.094-3.062-3.864-3.742-2.953-2.625-6.39-4.828-8.843-5.645-2.274-.761-5.586-1.015-8.645-.656-.625.07-1.078.09-1.027.055.05-.035 1.203-.356 2.57-.684 3.758-.93 8.336-1.633 15.117-2.363 5.805-.617 12.211-1.488 13.746-1.887.723-.195 2.22-.008 2.977.352.34.18.43.277.45.558.03.438 5.066 7.489 6.171 8.63 1.508 1.566 3.176 2.273 4.895 2.113 1.074-.098 2.234-1 2.527-1.973l.191-.64.594.054c.344.023 1.106-.043 1.691-.152Zm18.137-40.738c.878.613.984.73 1.18 1.32.456 1.375-.74 2.563-3.45 3.403-3.063.941-5.855.925-9.602-.094-3.699-1.02-8.664-3.672-9.738-5.223-.297-.41.219-.187 1.543.668 1.73 1.133 3.516 2.145 3.54 2.008.007-.047-.329-.316-.74-.601-1.964-1.29-2.933-1.965-2.753-1.93.105.043.922.37 1.79.762 1.679.742 2.722 1.07 2.937.914.066-.047-.157-.16-.473-.239-.938-.238-7.43-3.316-6.672-3.156.121.035 1.063.328 2.094.695 1.894.664 6.242 1.93 6.547 1.895.414-.027-.364-.578-1.016-.711-.898-.188-6.23-1.879-6.316-2-.036-.05 1.398.05 3.18.238 3.519.356 4.628.309 1.714-.09l-1.8-.242 1.19-.074c1.669-.11 4.731-.668 6.009-1.11.59-.195 1.515-.59 2.039-.859 1.27-.664 3.347-.972 5.035-.734l1.262.18.414.738c.238.406.476 1.043.527 1.398.066.38.207.996.324 1.39.223.7.258.75 1.195 1.419Zm-14.426.023c.32.02.457.075.36.145-.032.023-.204-.008-.372-.059-.312-.082-.309-.105.012-.085Zm12.433-12.87c.153.421.375 1.746.508 2.949.27 2.507.43 3.18 1.074 4.437.598 1.184.582 2.188-.082 3.024l-.222.293-.121-.665c-.149-1.027-.551-1.93-1.043-2.433-.582-.563-1.977-.8-3.711-.621l-1.23.125.687-.625c2.218-2.082 3.281-4.996 2.761-7.61-.117-.644-.27-1.355-.312-1.597-.125-.598 1.312 1.715 1.684 2.715Zm-21.39 7.566c-.04-1.008 1.101-4.89 2.011-6.867.274-.559.422-1.036.368-1.032-.309-.05-1.82 3.692-2.371 5.868l-.368 1.43-.093-.665c-.145-.91-.047-4.031.203-6.242.191-1.809.16-1.914-.219-.441-.082.386.035-.508.293-2.012.738-4.457 2.125-7.8 4.203-10.137 1.766-2.004 3.059-2.433 4.688-1.578.746.398 1.062.672 2 1.82.812.961 1.316 1.45 1.793 1.72.816.468 1.41 1.183 1.039 1.276-1.36.368-2.118.739-3.512 1.77-2.617 1.906-4 3.71-6.485 8.41-.96 1.828-2.058 4.012-2.414 4.867-.351.856-.757 1.715-.878 1.899-.153.23-.239.199-.258-.086Zm.328 1.758c.047-.282 2.953-3.215 5.066-5.11 1.711-1.515 4.88-3.797 5.973-4.304.242-.118.121-.106-.277.007-1.598.496-5 3.067-8.477 6.434-.863.828-1.602 1.5-1.656 1.496-.246-.05.722-1.84 1.574-2.93.984-1.27 1.223-1.875.3-.73-.304.348-.558.629-.6.629-.188-.016 3.51-6.75 4.378-7.965 2.8-3.863 5.957-5.809 8.828-5.445 1.696.218 2.461.812 2.899 2.207.125.414.3 1.324.367 1.996.078.695.277 1.851.453 2.562.18.735.34 1.73.355 2.219.028 1.191-.527 2.813-1.402 4.098-.676 1-.848 1.168-2.547 2.394-1.703 1.223-1.918 1.336-3.285 1.754-1.586.465-4.504.984-5.84 1.024-1.703.058-5.023-.024-4.996-.122.004-.058 1.317-.597 2.906-1.207 1.59-.593 2.903-1.132 2.907-1.191.027-.098-3.864 1.137-4.84 1.535-.742.305-.66.07.25-.715 1.953-1.68 4.355-3.257 5.445-3.562.195-.063.184-.102-.043-.121-.683-.043-2.277.875-4.558 2.629-1.188.91-2.332 1.886-2.532 2.152-.394.512-.672.613-.61.242Zm-19.992 5.398c.59-2.398.66-4.062.332-8.18-.532-6.804-.356-7.91 2.175-13.476.704-1.524 1.41-3.238 1.583-3.801.585-1.883.5-1.758.789-1.144.164.304.738 1.722 1.312 3.152 2.371 5.883 2.836 8.406 2.086 11.597-.527 2.297-1.332 3.95-3.059 6.325-.906 1.265-2.75 3.554-2.98 3.718-.063.047.148-.609.484-1.46.344-.86.785-2.215.993-3.016.527-1.93 1.93-10.094 1.785-10.297-.063-.086-.524 1.664-1.028 3.902-1.433 6.422-1.547 6.907-2.066 8.395-.524 1.512-1.688 3.863-2.215 4.433l-.324.352.125-.492Zm-20.602-2.008c.285.121.762.77 1.129 1.567l.277.562-.48-.242a10.802 10.802 0 0 1-1.2-.707l-.714-.465.383-.406c.27-.293.453-.383.613-.313Zm-1.656 1.39c.246.075.844.462 1.347.829.836.629 1.051.715 2.711.96 1.61.235 1.84.317 2.133.72.242.34.297.625.239 1.074-.165.922-1.024 1.805-2.52 2.621-4.082 2.188-8.035 2.82-13.059 2.098-.617-.086-1.504-.149-1.96-.133-.473.012-.856.008-.868-.008-.011-.016 1.23-.23 2.77-.5 2.746-.441 4.531-.812 4.457-.914-.02-.027-1.219.129-2.63.348-1.429.222-2.589.37-2.597.332.02-.036.676-.332 1.504-.657 3.746-1.53 6.32-3.593 7.64-6.136l.391-.762.442.117Zm-9.254-11.01c2.02.245 4.82 2.241 6.621 4.741.55.766.926 1.153 1.285 1.328.485.25 1.363 1.122 2.156 2.145l.387.508-.574.793c-.332.449-.64.789-.7.754-.062-.028-.077-.29-.019-.586.156-.797-.031-1.754-.48-2.38-.637-.882-1.551-1.487-3.43-2.26-.969-.391-2.121-.946-2.543-1.212a7.66 7.66 0 0 0-1.332-.687c-.578-.196-.89-.602-1.906-2.465l-.457-.817 1 .122Zm-10.852 5.616c-.172-2.277.57-4.898 1.586-5.625.442-.32 1.262-.488 1.977-.39l.492.05-.633.586c-.347.325-.87.977-1.168 1.442-.785 1.254-1.488 3.2-1.73 4.758-.25 1.574-.39 1.351-.528-.809Zm2.95 8.516c-.454-.629-1.407-3.281-1.614-4.496-.472-2.79.692-6.867 2.48-8.746 1.012-1.059 2.087-1.383 3.587-1.121 1.218.21 1.758.578 2.355 1.617.29.48.555.941.602 1.008.043.09.21.23.379.36.308.214.293.222-.184.304-.855.113-2.148.816-2.789 1.5-2.363 2.488-3.484 7.035-2.723 11.011.192 1.008.032.895-.437-.335-.375-.942-.48-1.653-.504-3.305-.024-2.074-.024-2-.14-1.39-.071.3-.13 1.05-.126 1.66-.011.617-.035 1.117-.082 1.113-.133-.02-1.011-2.66-1.11-3.297-.054-.348-.065-.836-.003-1.067.05-.246.047-.492 0-.558-.055-.078-.16.16-.215.515-.133.696-.015 1.813.328 2.817.114.344.207.715.203.816-.007.125.047.594.114 1.063.101.734.086.82-.114.539Zm1.546 2.355c-.23-.316-.566-1.054-.757-1.656-.43-1.336-.274-1.222.257.196.223.593.516 1.273.657 1.542.242.415.222.418-.157-.082Zm.727 1.254a1.09 1.09 0 0 1-.273-.379c-.059-.156.027-.097.171.102.157.215.192.324.102.277Zm2.547.414c.09-.086.887-.793 1.758-1.554l1.574-1.403-1.727 1.286c-1.558 1.167-1.687 1.238-1.433.804.535-.844 3.375-4.383 4.285-5.312l.879-.914-.848.683c-1.441 1.192-4.969 5.5-4.996 6.133a.66.66 0 0 1-.25.453c-.383.274-.223-.125 1.14-2.699 1.29-2.465 2.45-4.426 3.192-5.41.649-.824.68-.871.57-.89-.378-.075-2.855 3.683-4.593 6.976l-.899 1.703.246-1.246c.453-2.32 1.692-5.207 3.059-7.168.105-.13.133-.27.074-.278-.144-.02-1.387 1.805-1.937 2.868-.547 1.027-1.278 3.011-1.524 4.062-.078.418-.183.79-.219.813-.218.156-.296-1.786-.105-2.836.113-.692.14-1.215.07-1.16-.074.05-.14.23-.144.406a2.628 2.628 0 0 1-.172.605c-.137.293-.149.282-.191-.265-.172-2.309.308-4.52 1.464-6.774.668-1.285.871-1.531 1.692-2.176.836-.66 1.023-.761 1.879-.875.898-.132 1.02-.101 2.648.754.926.48 2.055 1.016 2.488 1.164.875.305 2.012.871 2.524 1.246.52.376 1.027 1.352 1.031 1.918-.004.81-.59 2.27-1.297 3.258-.515.719-1.012 1.184-2.383 2.23-1.515 1.169-1.933 1.434-3.554 2.153-1.79.79-4.653 1.762-4.297 1.453Zm-30.54 23.735c.477-1.41 1.938-7.817 2.45-10.75.559-3.238 1.191-8.219 1.188-9.406-.004-1.34-.293-.618-.579 1.484-.164 1.21-.304 2.348-.285 2.527-.004.582-1.457 8.086-2.261 11.602l-.766 3.363-.473-3.05c-.566-3.692-.644-5.426-.383-7.95.348-3.316.934-5.547 2.754-10.437.614-1.649 1.078-3.286 1.235-4.223.12-.844.265-1.461.312-1.395.059.079.504 1.153.996 2.426 1.442 3.617 2.055 6.395 2.188 9.68.156 4.715-1.344 9.34-4.414 13.57-.817 1.121-1.578 2.305-1.711 2.621-.313.758-.516.719-.246-.054Zm-30.362 14.789c-.059-.613.406-2.945.949-4.688.945-3.035 4.535-8.558 7.984-12.277.957-1.035 1.313-1.477 1.012-1.305-.649.371-3.25 3.149-4.656 4.95-2.559 3.261-4.606 6.808-5.22 9.046-.316 1.133-.335 1.18-.335.59-.016-2.898.465-5.242 1.535-7.484.836-1.79 2.727-4.223 5.195-6.754 1.586-1.602 5.079-4.445 6.856-5.55l1.293-.81-.317.684a10.44 10.44 0 0 0-.464 1.274c-.094.328-.235 1.707-.332 3.054-.192 2.79-.707 5.723-1.235 7.137-.363.938-.394.973-1.582 1.816-.68.47-2.117 1.426-3.215 2.141-1.636 1.059-2.164 1.461-3.058 2.402-1.38 1.418-2.84 3.43-3.688 5.055l-.676 1.274-.043-.547Zm.035 26.16c-.317-.832-1.633-2.977-2.602-4.2-1.48-1.87-2.664-2.76-6.332-4.82-3.61-2.03-4.058-2.332-5.36-3.445-1.484-1.254-3.702-4.336-4.94-6.855-1.466-2.989-2.782-4.575-4.696-5.668-.394-.23-1.594-.75-2.644-1.149-1.106-.414-1.891-.808-1.872-.91.063-.371 1.77-.664 3.36-.578 2.105.11 6.515.902 8.351 1.543 1.832.621 4.387 1.879 5.715 2.84 1.188.847 3.688 3.156 4.91 4.531 1.13 1.281 3.438 4.711 3.989 5.961.8 1.777 1.933 6.406 2.289 9.324.238 1.903.234 2.457-.004 1.824-1.117-2.988-3.309-5.863-9.457-12.457-2.715-2.921-6.18-6.324-6.23-6.09-.005.055.84.985 1.894 2.067 2.203 2.254 4.703 5.012 8.035 8.84 3.559 4.09 5.11 6.558 5.55 8.793.083.398.09.61.044.449Zm25.293-10.785c3.574-.582 7.215.187 11.047 2.312 2.48 1.399 3.921 2.563 6.84 5.598 1.378 1.418 2.144 1.89 1.015.61-3.77-4.294-5.062-5.407-8.152-7.028-1.532-.797-3.774-1.652-5.063-1.914l-1.066-.223.988.04c5.578.222 10.996 2.624 14.758 6.542.453.461.945.965 1.098 1.13.593.609 5.417 7.382 5.363 7.523-.024.07-.25.101-.473.054-.242-.05-.984-.097-1.672-.082-3.515.04-5.129-.273-6.71-1.304-.755-.493-.942-.72-3.262-3.922-2.653-3.653-3.149-4.188-5.368-5.774-3.109-2.242-5.246-2.992-9.367-3.34l-.914-.074.942-.164Zm95.011-33.176c.582.598 1.204 1.668 1.286 2.238.128.813-.055 2.723-.309 3.192l-.219.465-.531-.735c-.918-1.277-1.887-1.847-3.879-2.265l-.742-.153.976-.855a49.932 49.932 0 0 1 1.965-1.59l1-.742.45.441Zm-6.527-11.59c1.172-.265 2.828.145 3.36.863.109.153.269.766.34 1.383.081.614.097 1.149.027 1.188-.051.035-.707.183-1.446.312-2.28.422-3.746 1.008-5.668 2.305-1.53 1.008-2.851 2.152-3.308 2.82-.094.145-.145.149-.203-.007-.078-.29 1.332-2.192 2.414-3.278.836-.808 1.218-1.476.43-.734a27.251 27.251 0 0 0-3.126 3.562c-.53.742-1 1.352-1.023 1.348-.145-.016 2.777-5.207 3.355-5.938 1.457-1.914 3.454-3.484 4.84-3.816Zm-29.824-3.02c4.836-.796 8.906-.34 13.988 1.583 1.883.695 8.703 3.664 8.676 3.761-.008.051-.453.176-1 .293-.547.149-2.172.664-3.598 1.153-1.426.52-3.054 1.058-3.62 1.195-4.911 1.332-8.806.527-14.466-2.984-2.566-1.598-4.992-2.618-6.093-2.567-.817.032-.477-.168.554-.324 1.617-.25 4.196-.293 6.602-.133 4.008.297 8.73.844 11.015 1.27 2.637.5 2.063.129-.804-.512-2.742-.61-9.54-1.473-12.41-1.55-.688-.016-1.91.011-2.7.081-.789.055-1.367.067-1.28.008.316-.23 3.347-.973 5.144-1.277Zm-11.445 22.59c1.613-.07 3.593.118 4.992.473 3.773.922 7.98 3.867 13.27 9.285a425.25 425.25 0 0 0 3.109 3.125c1.714 1.68 1.683 1.59.41 1.547-.63-.023-2.461.16-4.078.41-1.606.239-3.442.461-4.055.489-1.652.054-3.426-.29-4.535-.856-1.813-.941-2.176-1.312-4.946-5.11-2.402-3.273-2.578-3.503-3.707-4.437-2.09-1.703-4.183-2.582-6.972-2.968-.89-.114-1.578-.25-1.54-.278.036-.027.595-.125 1.255-.226 1.488-.192 3.16-.032 4.957.527 2.62.816 3.847 1.45 10.02 5.172 3.605 2.187 4.784 2.855 4.816 2.746.03-.273-8.653-6.016-10.739-7.11-1.449-.753-3.375-1.46-5.168-1.87-.804-.184-1.414-.375-1.363-.41.18-.133 3.027-.462 4.277-.5Zm29.476-6.164c-1.957.418-5.41.79-12.476 1.399-10.329.863-15.368 1.738-21.887 3.785-5.04 1.578-8.758 3.145-15.488 6.477-8.97 4.445-11.829 6.125-19.723 11.605-3.367 2.348-6.332 4.332-6.567 4.402-.324.114.653-.82 3.68-3.535 6.184-5.566 10.324-9.379 15.348-14.164 8.21-7.812 11.933-10.898 22.129-18.379 6.543-4.812 7.515-5.218 10.703-4.699 1.89.305 2.703.66 6.012 2.649 4.175 2.5 6.457 3.32 9.59 3.484 2.613.148 4.578-.29 9.656-2.082 2.703-.953 5.097-1.445 5.351-1.094.035.05-.12.336-.351.633-.754.98-3.57 6.598-3.778 7.531-.36 1.504-.484 1.613-2.207 1.996Zm3.02-.332c-.125.036-.121-.03.023-.136.125-.114.234-.125.211-.055-.012.063-.117.16-.227.188Zm1.547.434c-.325-.07-.536-.148-.485-.184.113-.085 1.95-.066 3.36.032.57.047 1.011.023.953-.055-.098-.137-2.176-.328-3.567-.32-.48 0-.875-.047-.867-.082.05-.325 2.914-.953 4.543-.993.43-.007.758-.07.723-.117-.11-.12-1.52-.14-2.278-.031-1.144.172-.632-.055 2.22-1.02.694-.23 1.847-.523 2.57-.64 1.695-.309 1.57-.457-.173-.207-1.628.238-4.12 1.02-6.093 1.863-2.5 1.09-2 .711 1.476-1.14 2.125-1.125 4.532-2.13 5.614-2.356 1.035-.21.964-.367-.094-.203-1.195.172-5.895 2.14-6.942 2.898-.187.133-.39.203-.445.121-.058-.078.469-.543 1.32-1.18 1.325-.976 1.344-1.011.457-.48-.515.293-1.64 1.125-2.492 1.836-.836.703-1.582 1.274-1.617 1.266-.137-.02 3.824-4.195 4.758-5.02.96-.847 2.844-1.851 4.387-2.375 1.476-.476 3.746-.836 3.855-.61.035.106.176.106.297.017.266-.192 1.586.023 2.293.367.64.3 1.351 1.457 1.348 2.156-.02 1.129-1.059 2.531-2.84 3.813a18.234 18.234 0 0 0-1.965 1.69c-2.047 2.106-4.8 2.63-8.2 1.579-.85-.273-1.784-.539-2.097-.594Zm-1.512 1.688c-.047-.063.004-.133.094-.141.105-.024.199.008.226.043.02.027-.016.086-.094.14-.062.047-.175.032-.226-.042Zm2.219-.614c.539.145.64.192.363.215-.09.012-.332-.066-.52-.16-.285-.152-.27-.164.157-.055Zm9.8 9.504c-.78.942-1.234 1.098-2.597.89-1.91-.292-3.266-1.445-5.504-4.66-.852-1.21-1.414-2.124-1.274-2.038.559.382.57.12.004-.313-.328-.242-.851-.8-1.137-1.23-.503-.727-.43-.672 1.004.695 2.082 2.012 3.524 3.133 5.004 3.934 1.442.804 3.602 1.625 4.532 1.761.343.059.64.117.62.153-.003.023-.296.39-.644.816Zm-8.195-6.637a20.467 20.467 0 0 0-.906-.972c-.309-.293-.274-.305.398-.004 1.016.457 2.637.914 2.918.851.125-.035-.285-.23-.906-.437-1.121-.36-2.277-.91-3.402-1.594-.516-.316-.524-.332-.215-.324.187.016.968.281 1.754.602 1.425.542 1.976.667 1.086.207-.293-.137.242-.118 1.355.093 1.863.348 3.656.504 3.875.352.063-.047-.324-.129-.867-.188a44.04 44.04 0 0 1-2.555-.414c-.879-.175-1.18-.261-.7-.226 1.337.129 2.263.02 3.61-.399.68-.218 1.285-.347 1.32-.297.04.051.614.29 1.278.543.664.227 1.477.582 1.8.774.837.465 1.696 1.691 1.927 2.734.168.762.25.88.93 1.535.413.391.784.817.808.953.11.426-.797.922-2.074 1.137-3.2.582-8.442-1.683-11.414-4.93Zm0 0" fill="#e6c2bf" data-color="1"></path>
                </g>
            </g>
        </g>
    </g>
</svg>