<svg preserveAspectRatio="xMidYMid meet" data-bbox="112.5 115.309 150 144.382" height="100%" viewBox="112.5 115.309 150 144.382" width="100%" xmlns="http://www.w3.org/2000/svg" data-type="color" role="presentation" aria-hidden="true" aria-label="">
    <g>
        <defs>
            <clipPath id="6ef82419-f388-4eb9-9da2-291c92c3d93e_comp-lt6fvhvh">
                <path d="M112.5 203H138v57h-25.5Zm0 0"></path>
            </clipPath>
            <clipPath id="0c4a7aee-18a0-4e82-add5-2e701bf0824c_comp-lt6fvhvh">
                <path d="M142 206h120.5v53H142Zm0 0"></path>
            </clipPath>
        </defs>
        <g clip-path="url(#6ef82419-f388-4eb9-9da2-291c92c3d93e_comp-lt6fvhvh)">
            <path d="M137.773 210.55v41.887c0 3.977-3.277 7.254-7.253 7.254h-15.68c-1.168 0-2.34-1.168-2.34-2.34v-51.714c0-1.172.938-2.34 2.34-2.34h15.68c3.976 0 7.253 3.273 7.253 7.254Zm0 0" fill="#e6c2bf" data-color="1"></path>
        </g>
        <g clip-path="url(#0c4a7aee-18a0-4e82-add5-2e701bf0824c_comp-lt6fvhvh)">
            <path d="M254.543 227.633h-.469c-21.762 2.34-55.691 5.851-75.816 1.87l25.273-2.339c1.403-.234 2.34-1.402 2.106-2.809-1.172-6.316-6.32-11.464-12.637-12.167l-24.805-4.68c-3.511-.938-6.554-.938-9.828.469l-15.68 8.191v31.355c50.313 12.168 46.567 11.23 48.672 11.23 2.575 0-.23.235 64.59-14.273 3.977-.933 6.551-4.445 6.551-8.421-.234-4.215-3.746-7.957-7.957-8.426Zm0 0" fill="#e6c2bf" data-color="1"></path>
        </g>
        <path d="M206.805 152.75c10.297 0 18.722-8.426 18.722-18.723 0-10.293-8.425-18.718-18.722-18.718s-18.72 8.425-18.72 18.718c0 10.297 8.423 18.723 18.72 18.723Zm0 0" fill="#e6c2bf" data-color="1"></path>
        <path d="M172.406 203.762h69.266c1.172 0 2.34-1.168 2.34-2.34v-24.57c0-8.891-7.723-15.91-17.317-15.91h-39.312c-9.594 0-17.317 7.253-17.317 15.91v24.57c0 1.406.938 2.34 2.34 2.34Zm0 0" fill="#e6c2bf" data-color="1"></path>
    </g>
</svg>